<svg width="32" height="32" viewBox="0 0 32 32" fill="none" xmlns="http://www.w3.org/2000/svg">
<path d="M6.016 24.3032C7.145 25.9182 12.057 27.1852 14.378 24.1632C16.888 25.3632 21.027 24.9912 24.398 23.1112C24.866 22.8512 25.309 22.5212 25.581 22.0572C26.194 21.0122 26.208 19.5622 25.09 17.4232C23.225 12.7692 19.872 8.68316 18.518 7.04016C18.24 6.78716 16.467 6.42716 15.385 6.08016C14.907 5.93316 14.018 5.83516 12.955 7.23716C12.45 7.90116 10.159 9.53416 13.065 10.6312C13.516 10.7462 13.847 10.9572 15.902 10.5822C16.169 10.5362 16.837 10.5822 17.308 11.4082L18.292 12.8152C18.384 12.9455 18.4421 13.0967 18.461 13.2552C18.633 14.7542 18.627 16.6302 19.463 17.5812C18.173 16.6472 14.799 15.5392 12.257 18.6932M6 16.9382C7.14433 15.9182 8.60324 15.3205 10.1343 15.2445C11.6653 15.1685 13.1762 15.6186 14.416 16.5202" stroke="#F6AD0B" stroke-width="1.5" stroke-linecap="round" stroke-linejoin="round"/>
</svg>
