<svg width="32" height="32" viewBox="0 0 32 32" fill="none" xmlns="http://www.w3.org/2000/svg">
<path d="M6.683 9.00002C5.318 9.06202 4.475 9.25402 3.879 9.85102C3 10.731 3 12.148 3 14.981V19.99C3 22.823 3 24.24 3.879 25.12C4.757 26 6.172 26 9 26H15C17.828 26 19.243 26 20.121 25.12C20.999 24.24 21 22.823 21 19.99V14.98C21 12.147 21 10.73 20.121 9.85002C19.525 9.25302 18.681 9.06002 17.317 8.99902" stroke="#3FAF58" stroke-width="1.5" stroke-linejoin="round"/>
<path d="M7.02471 10.54C6.54471 8.66 6.30471 7.72 6.69471 7.03C6.79921 6.84621 6.9322 6.68014 7.08871 6.538C7.67771 6 8.66871 6 10.6497 6H13.3497C15.3307 6 16.3217 6 16.9107 6.538C17.0677 6.681 17.2007 6.848 17.3047 7.031C17.6947 7.721 17.4547 8.661 16.9747 10.541C16.5907 12.039 16.3997 12.788 15.8877 13.281C15.7477 13.4163 15.594 13.534 15.4267 13.634C14.8127 14 14.0227 14 12.4437 14H11.5557C9.97571 14 9.18571 14 8.57271 13.634C8.40675 13.5342 8.25246 13.4161 8.11271 13.282C7.59971 12.788 7.40771 12.039 7.02471 10.54Z" stroke="#3FAF58" stroke-width="1.5" stroke-linejoin="round"/>
<path d="M10 22H14M11.5 14L12.5 11" stroke="#3FAF58" stroke-width="1.5" stroke-linecap="round" stroke-linejoin="round"/>
<path d="M27 24L27 8M27 24C26.21 24 24 21 24 21M27 24C27.79 24 30 21 30 21" stroke="#3FAF58" stroke-width="1.5" stroke-linecap="round" stroke-linejoin="round"/>
</svg>
